<svg width="36" height="36" viewBox="0 0 36 36" fill="none" xmlns="http://www.w3.org/2000/svg">
<g id="Group 164">
<circle id="Ellipse 11" cx="18" cy="18" r="18" fill="#29493C"/>
<path id="Vector" d="M18.5716 12C18.3547 12 18.1404 12.0375 17.9368 12.1098L10.4236 14.8227C10.1692 14.9164 10.0004 15.1574 10.0004 15.4279C10.0004 15.6984 10.1692 15.9394 10.4236 16.0331L11.9745 16.5928C11.5352 17.2838 11.2861 18.1006 11.2861 18.9602V19.7128C11.2861 20.4733 10.9968 21.258 10.6888 21.8766C10.5147 22.2248 10.3165 22.5676 10.0861 22.8836C10.0004 22.9987 9.97631 23.1487 10.0245 23.2853C10.0727 23.4219 10.1852 23.5236 10.3245 23.5584L12.0388 23.9869C12.1513 24.0164 12.2718 23.995 12.3709 23.9334C12.47 23.8718 12.5396 23.77 12.5611 23.6549C12.7914 22.5087 12.6762 21.4803 12.5048 20.7438C12.4191 20.3635 12.3039 19.9752 12.1432 19.619V18.9602C12.1432 18.1515 12.4164 17.3882 12.8905 16.7776C13.236 16.3625 13.6834 16.0278 14.2083 15.8216L18.4136 14.1692C18.6332 14.0835 18.8823 14.1906 18.9681 14.4102C19.0538 14.6298 18.9466 14.8789 18.727 14.9646L14.5217 16.617C14.1896 16.7482 13.8976 16.949 13.6593 17.1954L17.9342 18.738C18.1377 18.8103 18.352 18.8478 18.569 18.8478C18.7859 18.8478 19.0002 18.8103 19.2038 18.738L26.7197 16.0331C26.9741 15.9421 27.1429 15.6984 27.1429 15.4279C27.1429 15.1574 26.9741 14.9164 26.7197 14.8227L19.2064 12.1098C19.0029 12.0375 18.7886 12 18.5716 12ZM13.4289 22.0695C13.4289 23.0148 15.7324 23.9976 18.5716 23.9976C21.4109 23.9976 23.7144 23.0148 23.7144 22.0695L23.3046 18.1756L19.4957 19.5521C19.1984 19.6592 18.885 19.7128 18.5716 19.7128C18.2582 19.7128 17.9422 19.6592 17.6475 19.5521L13.8387 18.1756L13.4289 22.0695Z" fill="#FAE70F"/>
</g>
</svg>
