<svg width="52" height="52" viewBox="0 0 52 52" fill="none" xmlns="http://www.w3.org/2000/svg">
<circle cx="26" cy="26" r="26" fill="#29493C"/>
<mask id="mask0_241_113" style="mask-type:alpha" maskUnits="userSpaceOnUse" x="0" y="0" width="52" height="52">
<circle cx="26" cy="26" r="26" fill="#29493C"/>
</mask>
<g mask="url(#mask0_241_113)">
<path d="M19.9306 9H25.1989C24.0338 13.5929 22.9024 18.1182 21.7205 22.7786C24.3546 22.3058 26.8706 21.7655 29.4878 21.1069C28.5422 17.0544 27.4109 13.0863 26.4484 9.01689H31.5141C32.8143 12.3265 34.1145 15.6529 35.4484 19.03C36.833 18.439 37.8968 17.5779 38.6398 16.3452C39.1464 17.2064 38.9606 18.4053 38.2514 19.2495C37.576 20.06 36.698 20.6173 35.7355 20.9719C33.7936 21.6642 31.8687 22.3902 29.8762 22.8968C26.7861 23.6904 23.6454 24.3152 20.5216 25.0244C18.0563 25.5816 15.6248 26.257 13.3114 27.2702C12.6529 27.5572 12.0113 27.9287 11.319 28.3002C11.2852 27.3208 11.6735 26.5441 12.3659 25.9024C12.4503 25.8349 12.5347 25.7505 12.636 25.7167C13.531 25.3959 13.8011 24.6023 14.1051 23.8255C15.9118 19.1651 17.7524 14.5047 19.576 9.84428C19.6942 9.55722 19.8293 9.25328 19.9306 9ZM32.3077 32.1332C34.8068 31.4071 37.2214 30.7317 39.5178 29.4822C41.4766 34.4972 43.4184 39.4616 45.3771 44.4597C41.9325 44.0207 38.5554 43.5985 35.0769 43.1426C34.1651 39.546 33.2364 35.8818 32.2908 32.1332H32.3077ZM7.43527 39.5798C7.33396 37.5366 8.02627 35.8312 9.6304 34.531C10.8293 33.5685 12.2139 32.9606 13.6492 32.4709C17.0263 31.2889 20.5216 30.5122 24 29.6848C27.7993 28.773 31.6154 27.9625 35.2796 26.5948C36.242 26.2402 37.1876 25.8011 38.0826 25.3115C39.4503 24.5685 40.6323 23.5891 41.3246 22.1201C42.1351 23.7918 41.6117 26.0038 40.1764 27.1013C39.0788 27.9456 37.8124 28.5366 36.5291 29.0263C33.0844 30.3602 29.5047 31.2214 25.925 32.1163C22.5816 32.9437 19.2383 33.7711 15.9287 34.7167C14.3921 35.1557 12.9062 35.7636 11.454 36.4222C9.86679 37.1482 8.44841 38.1276 7.4015 39.5966L7.43527 39.5798ZM40.2946 18.3377C40.5816 19.6886 40.6998 20.9043 40.0075 22.0357C39.501 22.863 38.7411 23.4372 37.9137 23.91C36.3771 24.7711 34.7055 25.379 33.0169 25.818C29.5891 26.713 26.1276 27.5741 22.6829 28.4015C19.2552 29.2289 15.8274 30.0394 12.5685 31.424C11.4034 31.9306 10.2889 32.5385 9.25891 33.5178C9.05629 32.2345 9.22514 31.1876 10.0525 30.2927C10.863 29.4146 11.9099 28.9081 12.9906 28.4691C15.152 27.5741 17.3978 26.9662 19.6773 26.4428C22.818 25.7167 25.9756 25.0582 29.1163 24.3321C31.3283 23.8255 33.5404 23.2345 35.6342 22.3227C37.0188 21.7317 38.319 21.0056 39.2814 19.8236C39.636 19.3846 39.9062 18.8949 40.3115 18.3039L40.2946 18.3377ZM6 44.561C6.28705 43.7843 6.60788 43.1088 6.81051 42.3996C7.36773 40.424 8.73546 39.2083 10.4747 38.2965C12.8893 37.0469 15.4897 36.2871 18.1238 35.6454C18.1745 35.6454 18.2251 35.6792 18.3771 35.713C17.8199 38.2289 17.1445 40.728 16.5366 43.1426C13.0075 43.6154 9.57974 44.0882 6 44.561Z" fill="#FAE70F"/>
</g>
</svg>
