<svg width="16" height="16" viewBox="0 0 16 16" fill="none" xmlns="http://www.w3.org/2000/svg">
<path d="M10.9901 15.825H5.0085C2.34209 15.825 0.173584 13.6565 0.173584 10.9901V5.0085C0.173584 2.34209 2.34209 0.173584 5.0085 0.173584H10.9901C13.6565 0.173584 15.825 2.34209 15.825 5.0085V10.9901C15.825 13.6565 13.6565 15.825 10.9901 15.825ZM5.0085 1.91826C3.30496 1.91826 1.91827 3.30496 1.91827 5.0085V10.9901C1.91827 12.6936 3.30496 14.0803 5.0085 14.0803H10.9901C12.6936 14.0803 14.0803 12.6936 14.0803 10.9901V5.0085C14.0803 3.30496 12.6936 1.91826 10.9901 1.91826H5.0085Z" fill="#29493C"/>
<path d="M7.99985 11.9995C5.79431 11.9995 4.00024 10.2054 4.00024 7.9999C4.00024 5.79436 5.79431 4.00029 7.99985 4.00029C10.2054 4.00029 11.9995 5.79436 11.9995 7.9999C11.9995 10.2054 10.2054 11.9995 7.99985 11.9995ZM7.99985 5.56942C6.65979 5.56942 5.56936 6.65984 5.56936 7.9999C5.56936 9.33996 6.65979 10.4304 7.99985 10.4304C9.33991 10.4304 10.4303 9.33996 10.4303 7.9999C10.4303 6.65984 9.33991 5.56942 7.99985 5.56942Z" fill="#29493C"/>
<path d="M12.8788 3.76715C12.8788 4.14023 12.5756 4.44336 12.2026 4.44336C11.8295 4.44336 11.5264 4.14023 11.5264 3.76715C11.5264 3.39407 11.8295 3.09094 12.2026 3.09094C12.5756 3.09094 12.8788 3.39407 12.8788 3.76715Z" fill="#29493C"/>
</svg>
