<svg width="17" height="17" viewBox="0 0 17 17" fill="none" xmlns="http://www.w3.org/2000/svg">
<path d="M5.18542 6.47363H1.60278V16.485H5.18542V6.47363Z" fill="#29493C"/>
<path d="M7.03296 6.47352H9.79812V7.86432C9.79812 7.86432 10.2233 6.46117 12.78 6.46117C14.8895 6.46117 16.3997 7.28275 16.3997 9.54042V16.4849H13.4466C13.4466 16.4849 13.4631 10.6446 13.4795 10.4649C13.496 10.2852 13.3163 8.81212 11.8116 8.81212C10.307 8.81212 9.83241 9.89155 9.83241 10.709V16.4835H7.0357V6.47215L7.03296 6.47352Z" fill="#29493C"/>
<path d="M4.66154 4.57424C5.3611 3.87468 5.36109 2.74048 4.66154 2.04092C3.96198 1.34137 2.82778 1.34136 2.12823 2.04092C1.42867 2.74047 1.42868 3.87468 2.12823 4.57423C2.82778 5.27378 3.96199 5.27379 4.66154 4.57424Z" fill="#29493C"/>
</svg>
