<svg width="136" height="38" viewBox="0 0 136 38" fill="none" xmlns="http://www.w3.org/2000/svg">
<path d="M10.6132 0H14.6269C13.7393 3.48718 12.8774 6.92308 11.9768 10.4615C13.9837 10.1026 15.9005 9.69231 17.8945 9.19231C17.1741 6.11538 16.3122 3.10256 15.5789 0.0128205H19.4382C20.4288 2.52564 21.4194 5.05128 22.4357 7.61538C23.4906 7.16667 24.301 6.51282 24.8671 5.57692C25.253 6.23077 25.1115 7.14103 24.5712 7.78205C24.0566 8.39744 23.3876 8.82051 22.6544 9.08974C21.175 9.61539 19.7084 10.1667 18.1904 10.5513C15.8362 11.1538 13.4434 11.6282 11.0635 12.1667C9.18525 12.5897 7.33276 13.1026 5.57033 13.8718C5.06861 14.0897 4.57976 14.3718 4.05231 14.6538C4.02659 13.9103 4.32247 13.3205 4.84991 12.8333C4.91424 12.7821 4.97856 12.7179 5.05575 12.6923C5.73756 12.4487 5.9434 11.8462 6.17496 11.2564C7.55146 7.71795 8.95369 4.17949 10.3431 0.641026C10.4331 0.423077 10.536 0.192308 10.6132 0ZM20.0429 17.5641C21.9468 17.0128 23.7864 16.5 25.536 15.5513C27.0283 19.359 28.5077 23.1282 30 26.9231C27.3756 26.5897 24.8027 26.2692 22.1527 25.9231C21.458 23.1923 20.7504 20.4103 20.03 17.5641H20.0429ZM1.09348 23.218C1.0163 21.6667 1.54374 20.3718 2.76587 19.3846C3.67924 18.6538 4.73413 18.1923 5.82762 17.8205C8.40051 16.9231 11.0635 16.3333 13.7135 15.7051C16.6081 15.0128 19.5154 14.3974 22.307 13.359C23.0403 13.0897 23.7607 12.7564 24.4425 12.3846C25.4846 11.8205 26.3851 11.0769 26.9125 9.96154C27.53 11.2308 27.1312 12.9103 26.0377 13.7436C25.2015 14.3846 24.2367 14.8333 23.259 15.2051C20.6346 16.2179 17.9074 16.8718 15.1801 17.5513C12.6329 18.1795 10.0858 18.8077 7.56432 19.5256C6.39365 19.859 5.26158 20.3205 4.15523 20.8205C2.94597 21.3718 1.86535 22.1154 1.06775 23.2308L1.09348 23.218ZM26.1278 7.08974C26.3465 8.11539 26.4365 9.03846 25.9091 9.89744C25.5232 10.5256 24.9443 10.9615 24.3139 11.3205C23.1432 11.9744 21.8696 12.4359 20.5832 12.7692C17.9717 13.4487 15.3345 14.1026 12.7101 14.7308C10.0986 15.359 7.48713 15.9744 5.00429 17.0256C4.11664 17.4103 3.26758 17.8718 2.48285 18.6154C2.32847 17.641 2.45712 16.8462 3.08748 16.1667C3.70497 15.5 4.50257 15.1154 5.3259 14.7821C6.97255 14.1026 8.68353 13.641 10.4202 13.2436C12.813 12.6923 15.2187 12.1923 17.6115 11.641C19.2967 11.2564 20.982 10.8077 22.5772 10.1154C23.6321 9.66667 24.6226 9.11538 25.3559 8.21795C25.6261 7.88462 25.8319 7.51282 26.1407 7.0641L26.1278 7.08974ZM0 27C0.218696 26.4103 0.463121 25.8974 0.617495 25.359C1.04202 23.859 2.08405 22.9359 3.40909 22.2436C5.24871 21.2949 7.22985 20.7179 9.23671 20.2308C9.2753 20.2308 9.31389 20.2564 9.42967 20.2821C9.00515 22.1923 8.49057 24.0897 8.02744 25.9231C5.33876 26.2821 2.72727 26.641 0 27Z" fill="#050A09"/>
<path d="M58.6443 1.16203V4.8321C58.3187 4.74331 58.082 4.68411 57.8452 4.62492C57.0016 4.40294 56.1581 4.28455 55.285 4.41774C53.8347 4.63972 52.6656 5.70522 52.4437 7.14069C52.3401 7.83623 52.3401 8.57616 52.4437 9.2717C52.6804 10.7072 53.8347 11.8911 55.1518 12.0538C56.2173 12.187 57.194 11.8763 58.082 11.2547C58.2447 11.1363 58.4223 11.0327 58.6147 10.8996C58.6443 11.2843 58.6739 11.5951 58.7035 11.9207H61.4117V0.851257C60.4793 0.954848 59.5914 1.05844 58.6443 1.16203ZM58.6443 8.60576C58.6443 8.69455 58.6295 8.79814 58.5851 8.88693C58.2151 9.59727 56.9277 10.0116 56.1729 9.68606C55.3442 9.31609 54.9298 8.33938 55.285 7.45146C55.4774 6.96311 55.8917 6.66713 56.3801 6.53395C57.1348 6.32676 57.8748 6.34156 58.6591 6.69673C58.6591 7.33307 58.6591 7.96942 58.6591 8.60576H58.6443Z" fill="#050A09"/>
<path d="M50.9488 3.50025H45.0441V5.1725H50.3272V7.51069H44.9997V8.76857L45.0441 9.50851H50.9488V11.9947C49.8981 12.1427 42.6467 12.0983 42.0844 11.9503C41.9808 11.1512 41.9808 10.1892 42.04 9.49371C41.9956 6.51918 41.9956 1.8576 42.0992 1.05847C42.6615 0.910481 49.9129 0.880884 50.9636 1.01407V3.50025H50.9488Z" fill="#050A09"/>
<path d="M90.92 7.36268C90.8016 5.88281 89.8841 4.9357 88.4486 4.58053C86.4064 4.09217 84.4086 4.43254 82.4107 4.8913V7.02231C82.7511 6.94832 83.0323 6.88912 83.3283 6.82993C84.5566 6.57835 85.7996 6.34157 87.0723 6.51915C87.4719 6.57835 87.9158 6.54875 88.2414 7.06671C88.049 7.18509 87.8862 7.34788 87.7087 7.36268C87.2499 7.42187 86.7764 7.42187 86.3176 7.40707C85.2965 7.37748 84.2902 7.40707 83.3727 7.89543C82.4699 8.38379 82.1 9.15332 82.2332 10.2484C82.3515 11.2547 83.1359 11.8023 83.9054 11.9799C84.7785 12.187 85.6221 12.0391 86.4508 11.8319C87.1759 11.6543 87.7383 11.1955 88.271 10.648C88.4042 11.1067 88.5226 11.5063 88.641 11.9207H90.9644C90.9644 10.352 91.0532 8.84254 90.9348 7.34788L90.92 7.36268ZM85.3557 10.0412C85.0597 9.98204 84.8525 9.81926 84.7933 9.52328C84.7489 9.28651 85.0153 8.97573 85.3409 8.93134C85.6369 8.88694 85.918 8.87214 86.214 8.85734C86.7912 8.82775 87.3831 8.79815 88.0194 8.76855C87.4719 9.68607 86.288 10.2484 85.3409 10.056L85.3557 10.0412Z" fill="#050A09"/>
<path d="M68.2189 4.53614H71.0159V11.9059H68.2633C68.2337 11.6395 68.2041 11.3731 68.1597 11.018C67.923 11.1659 67.7306 11.2843 67.5382 11.4175C66.9019 11.8911 66.1767 12.1131 65.3924 12.0983C64.3565 12.0835 63.6906 11.5655 63.365 10.574C63.2318 10.1744 63.0986 9.76007 63.0986 9.36051C63.069 7.79185 63.0986 6.20839 63.0986 4.55094C64.0161 4.49175 64.8892 4.52135 65.8216 4.52135C65.8512 4.74333 65.8808 4.93571 65.8808 5.12809C65.8808 6.06041 65.8808 7.00752 65.8808 7.93984C65.8808 8.26541 65.8956 8.59098 65.9695 8.88695C66.1471 9.62689 66.6947 9.87846 67.3754 9.55289C67.9526 9.27172 68.2781 8.88695 68.2337 8.17662C68.1745 6.99272 68.2189 5.80883 68.2189 4.55094V4.53614Z" fill="#050A09"/>
<path d="M80.6794 9.31609V11.4767C80.4722 11.5655 80.3242 11.6543 80.1614 11.6987C78.578 12.1426 76.9649 12.2758 75.3519 11.8319C72.6733 11.0919 71.667 7.91021 73.4132 5.73481C74.0496 4.93568 74.9523 4.58051 75.9142 4.43253C77.4977 4.21055 79.0515 4.37333 80.6202 4.90609V7.09629C80.2946 7.0075 80.0134 6.9483 79.7471 6.85951C78.8887 6.59313 78.0304 6.41555 77.1277 6.45995C76.151 6.50434 75.485 7.11109 75.4259 8.0582C75.3519 9.09411 75.9142 9.83404 76.9353 9.98203C77.7788 10.1004 78.5928 9.90803 79.4067 9.68605C79.7915 9.58246 80.1614 9.46407 80.6646 9.31609H80.6794Z" fill="#050A09"/>
<path d="M100.465 9.31612V11.4767C100.258 11.5655 100.11 11.6543 99.9472 11.6987C99.3108 11.8763 98.6893 11.9947 98.0529 12.0687L95.9515 14.7768L92.8882 13.8149L95.6703 11.9651C95.4928 11.9355 95.3152 11.8911 95.1524 11.8467C92.4738 11.1068 91.4675 7.92505 93.2138 5.74964C93.8501 4.95051 94.7528 4.59535 95.7147 4.44736C97.2982 4.22538 98.8521 4.38816 100.421 4.92092V7.11112C100.095 7.02233 99.814 6.96313 99.5476 6.87434C98.6893 6.60796 97.831 6.43038 96.9282 6.47478C95.9515 6.51917 95.2856 7.12592 95.2264 8.07303C95.1524 9.10894 95.7147 9.84887 96.7359 9.99686C97.5794 10.1152 98.3933 9.92287 99.2072 9.70089C99.592 9.5973 99.962 9.47891 100.465 9.33092V9.31612Z" fill="#050A09"/>
<path d="M110.662 7.36268C110.543 5.88281 109.626 4.9357 108.19 4.58053C106.148 4.09217 104.15 4.43254 102.152 4.8913V7.02231C102.493 6.94832 102.774 6.88912 103.07 6.82993C104.298 6.57835 105.541 6.34157 106.799 6.51915C107.199 6.57835 107.643 6.54875 107.968 7.06671C107.776 7.18509 107.613 7.34788 107.435 7.36268C106.977 7.42187 106.503 7.42187 106.044 7.40707C105.023 7.37748 104.017 7.40707 103.099 7.89543C102.197 8.38379 101.827 9.15332 101.96 10.2484C102.078 11.2547 102.863 11.8023 103.632 11.9799C104.505 12.187 105.349 12.0391 106.178 11.8319C106.903 11.6543 107.45 11.1955 107.998 10.648C108.131 11.1067 108.249 11.5063 108.368 11.9207H110.691C110.691 10.352 110.78 8.84254 110.662 7.34788V7.36268ZM105.097 10.0412C104.801 9.98204 104.594 9.81926 104.55 9.52328C104.505 9.28651 104.772 8.97573 105.097 8.93134C105.393 8.88694 105.674 8.87214 105.97 8.85734C106.548 8.82775 107.14 8.79815 107.776 8.76855C107.228 9.68607 106.044 10.2484 105.097 10.056V10.0412Z" fill="#050A09"/>
<path d="M121.124 5.73486C120.843 5.3945 120.518 5.12812 120.162 4.93574C120.162 4.93574 120.088 4.89134 120.059 4.87654C119.615 4.65456 119.127 4.50658 118.623 4.44738C118.091 4.37339 117.573 4.34379 117.04 4.35859C116.522 4.35859 115.989 4.37339 115.456 4.44738C114.953 4.52137 114.465 4.65456 114.021 4.87654C113.991 4.87654 113.947 4.90614 113.917 4.90614C113.562 5.12812 113.237 5.3945 112.956 5.73486C111.446 7.5995 111.979 10.2189 113.858 11.388V11.4767C114.065 11.5655 114.213 11.6543 114.376 11.6987C114.524 11.7431 114.672 11.7875 114.835 11.8171C114.85 11.8171 114.879 11.8171 114.894 11.8319C115.604 12.0243 116.33 12.1131 117.04 12.0983C117.75 12.0983 118.475 12.0243 119.186 11.8319C119.201 11.8319 119.23 11.8319 119.245 11.8171C119.393 11.7875 119.556 11.7431 119.704 11.6987C119.866 11.6543 120.014 11.5655 120.222 11.4767V11.388C122.101 10.2189 122.634 7.5995 121.124 5.73486ZM117.721 9.96728C117.499 9.99688 117.277 10.0265 117.04 10.0265C116.803 10.0265 116.581 9.99688 116.359 9.96728C115.412 9.7897 114.894 9.06456 114.968 8.07305C115.027 7.27393 115.53 6.71158 116.27 6.53399C116.522 6.5044 116.774 6.4748 117.04 6.4748C117.292 6.4748 117.558 6.5044 117.809 6.53399C118.564 6.71158 119.053 7.27393 119.112 8.07305C119.186 9.06456 118.668 9.7897 117.721 9.96728Z" fill="#050A09"/>
<path d="M109.759 0.185326C107.391 2.59751 105.008 -1.7829 102.64 0.910461C102.626 0.92526 102.611 0.954857 102.611 0.984454V2.89348C102.611 2.89348 102.64 2.96748 102.67 2.98227C102.714 2.99707 102.744 2.98227 102.774 2.95268C105.141 0.540494 107.524 4.9209 109.892 2.22754C109.907 2.21274 109.921 2.18315 109.921 2.15355V0.25932C109.921 0.25932 109.892 0.185326 109.862 0.170528C109.818 0.155729 109.788 0.170528 109.759 0.200125V0.185326Z" fill="#050A09"/>
<path d="M50.8465 16.7273C49.5764 16.7273 48.3506 16.7569 47.11 16.7273C46.6522 16.7273 46.4749 16.9046 46.3125 17.3033C45.3525 19.6515 44.363 21.9702 43.3883 24.3185C42.9304 25.3966 42.4874 26.4895 42 27.6858C42.9452 27.6858 43.8018 27.6858 44.6436 27.6858C44.9685 27.6858 45.1901 27.5972 45.3525 27.3018C46.0023 26.1941 46.9623 25.4409 48.1143 24.9388C49.0152 24.54 49.9456 24.2299 50.9499 24.3037C51.4077 25.4557 51.8508 26.5781 52.2643 27.6415H55.3953C53.8593 23.9493 52.3677 20.3457 50.8465 16.7273ZM46.7999 23.4324C47.4201 21.8226 48.0257 20.2275 48.705 18.47C49.1924 19.7402 49.6207 20.8478 50.049 21.9407C48.9266 22.4576 47.9075 22.9154 46.7851 23.4324H46.7999Z" fill="#050A09"/>
<path d="M61.9968 16.9046V20.5229C61.1845 20.3752 60.4461 20.1832 59.6929 20.1094C57.9649 19.9322 56.4585 20.8478 55.9416 22.3542C55.5133 23.6539 55.5724 24.9536 56.2517 26.1498C56.9016 27.2723 57.8763 27.9369 59.235 27.8039C60.0325 27.7301 60.771 27.479 61.4356 27.0064C61.5833 26.903 61.7457 26.7997 61.9525 26.6667C61.9673 27.0064 61.982 27.2723 62.0116 27.6119H64.7881V16.6092C63.8429 16.7126 62.9568 16.8012 61.9968 16.9046ZM61.982 24.2742C61.982 24.3923 61.9673 24.5253 61.9082 24.6286C61.4947 25.3966 60.2393 25.7658 59.4418 25.3671C58.6591 24.9831 58.3489 24.0379 58.6886 23.1518C58.8954 22.6201 59.3089 22.3838 59.7815 22.2804C60.5051 22.1179 61.2288 22.1032 61.982 22.4429C61.982 23.0632 61.982 23.6687 61.982 24.2742Z" fill="#050A09"/>
<path d="M135.959 23.4324C135.87 21.6897 134.896 20.6263 133.183 20.2719C131.233 19.8583 129.328 20.2128 127.393 20.6263V22.753C127.999 22.6349 128.545 22.5167 129.092 22.4281C130.214 22.2361 131.336 22.1327 132.459 22.3395C132.754 22.3986 133.035 22.4724 133.183 22.8416C132.666 23.1961 132.666 23.1961 132.193 23.2108C131.528 23.2108 130.864 23.2108 130.199 23.2108C129.49 23.2108 128.841 23.3733 128.22 23.7278C127.334 24.2447 127.113 25.0569 127.201 26.0021C127.275 26.8735 127.792 27.4495 128.589 27.6415C130.17 28.055 131.661 27.8926 132.917 26.6815C133.005 26.5929 133.138 26.5338 133.256 26.46C133.389 26.8883 133.493 27.2575 133.596 27.6267H135.974C135.974 26.1941 136.033 24.8206 135.974 23.4471L135.959 23.4324ZM130.244 25.7363C130.066 25.6772 129.874 25.4705 129.815 25.2932C129.741 25.0422 129.889 24.8059 130.17 24.732C130.406 24.673 130.657 24.6434 130.893 24.6286C131.573 24.5843 132.267 24.5548 132.991 24.5105C132.503 25.4114 131.144 26.0465 130.244 25.7511V25.7363Z" fill="#050A09"/>
<path d="M79.4538 25.6034C79.0551 25.4261 78.6858 25.1898 78.6858 24.5991H84.7706C84.7115 24.0969 84.682 23.6982 84.6081 23.3142C84.3275 21.9407 83.5891 20.9217 82.2303 20.4491C80.7978 19.9617 79.3357 19.9322 77.9031 20.4934C75.6287 21.3795 74.8312 24.3332 76.3228 26.2827C76.825 26.9473 77.5339 27.3018 78.3018 27.4938C80.1184 27.9664 81.9497 27.9221 83.7663 27.479C84.0026 27.4199 84.2094 27.3018 84.3866 27.2279V25.2194C83.5152 25.4261 82.7177 25.6624 81.9054 25.8101C81.0784 25.9726 80.2366 25.9578 79.439 25.6034H79.4538ZM80.3547 22.1918C81.2556 22.2213 81.6691 22.5019 81.8759 23.2994H78.5234C78.8187 22.4133 79.2766 22.1622 80.3399 22.1918H80.3547Z" fill="#050A09"/>
<path d="M94.6653 27.6267H91.9774C91.9774 27.3313 91.9774 27.0655 91.9774 26.7997C91.9478 25.692 91.9331 24.5843 91.874 23.4767C91.8297 22.7235 91.4752 22.4429 90.7073 22.4872C90.1017 22.5315 89.5848 22.7973 89.0384 23.1813V27.6119H86.3062V20.4343C87.1923 20.3309 88.0636 20.2276 89.0088 20.1242C89.0384 20.4786 89.0531 20.8183 89.0827 21.2614C89.3042 21.1432 89.4814 21.0398 89.6587 20.9365C90.6186 20.39 91.6081 19.9913 92.7453 20.1389C93.5281 20.2276 94.0893 20.6115 94.3699 21.35C94.5028 21.6897 94.6653 22.0589 94.6653 22.4133C94.6948 24.1413 94.6653 25.8545 94.6653 27.6563V27.6267Z" fill="#050A09"/>
<path d="M109.493 27.2723V25.1013C109.833 25.2194 110.099 25.308 110.38 25.4114C111.413 25.7954 112.491 25.9135 113.57 25.8397C113.88 25.8249 114.264 25.8545 114.5 25.4705C114.205 25.0865 113.762 25.1013 113.378 25.0127C112.565 24.8354 111.738 24.673 110.941 24.4514C110.645 24.3776 110.365 24.1856 110.084 24.0231C108.932 23.3585 108.903 21.542 110.099 20.7888C110.586 20.4786 111.162 20.2571 111.738 20.1685C113.57 19.8731 115.357 20.2719 117.158 20.6706V22.7235C115.49 22.3838 113.865 21.8964 112.181 22.3838C112.167 22.4429 112.152 22.502 112.137 22.5463C112.299 22.6201 112.447 22.7383 112.61 22.7826C113.304 22.945 114.013 23.0336 114.692 23.2404C115.298 23.4176 115.903 23.6392 116.464 23.9345C117.291 24.3924 117.424 25.2046 117.321 26.0465C117.217 26.8144 116.701 27.287 115.992 27.4643C115.327 27.6415 114.633 27.7892 113.968 27.7744C112.816 27.7596 111.664 27.6267 110.527 27.5086C110.188 27.479 109.863 27.3461 109.508 27.2575L109.493 27.2723Z" fill="#050A09"/>
<path d="M96.0244 22.3395V20.2276C96.3493 20.2276 96.6447 20.2423 96.9253 20.2276C97.5899 20.1685 97.7819 19.9469 97.8114 19.2823C97.8114 18.795 97.8114 18.3076 97.8114 17.7907C98.7123 17.6726 99.5394 17.5692 100.455 17.451V20.2276H103.808V22.3099H100.47C100.47 23.2256 100.44 24.0822 100.47 24.924C100.499 25.3523 101.001 25.6182 101.577 25.5295C102.006 25.4705 102.434 25.3376 102.862 25.2342C103.069 25.1751 103.276 25.116 103.527 25.0274V27.1689C102.611 27.6562 101.607 27.7449 100.603 27.7892C100.115 27.8187 99.6132 27.7892 99.1406 27.671C98.2102 27.4643 97.6194 26.7258 97.6047 25.7658C97.5899 24.8797 97.6047 23.9936 97.6047 23.1075V22.3247H96.0244V22.3395Z" fill="#050A09"/>
<path d="M122.652 20.2128H126.005V22.2952H122.682C122.623 23.2108 122.608 24.0527 122.682 24.9093C122.711 25.3671 123.228 25.6329 123.849 25.5148C124.454 25.4114 125.03 25.2194 125.724 25.0569C125.798 25.7511 125.739 26.4452 125.754 27.228C125.266 27.3609 124.794 27.5676 124.292 27.6267C123.568 27.7301 122.815 27.8039 122.091 27.7892C120.452 27.7449 119.743 26.711 119.802 25.4852C119.846 24.7025 119.802 23.905 119.802 23.1222V22.3247H118.222V20.2571C118.591 20.2275 118.931 20.2275 119.27 20.1832C119.817 20.1094 119.935 19.9765 120.009 19.43C120.083 18.8984 120.112 18.3519 120.156 17.7612C120.555 17.7169 120.954 17.6578 121.353 17.6135C121.766 17.5544 122.165 17.4953 122.652 17.4362V20.2128Z" fill="#050A09"/>
<path d="M65.4968 20.2571H68.5835C69.1447 22.0293 69.7207 23.8016 70.2819 25.5591C70.3262 25.5591 70.3705 25.5591 70.4148 25.5738C70.976 23.8164 71.5373 22.0589 72.1132 20.2718H75.1999C74.2252 22.7678 73.2947 25.1899 72.3495 27.6267H68.362C67.4315 25.2342 66.4863 22.7973 65.4968 20.2571Z" fill="#050A09"/>
<path d="M105.107 20.2719H107.78C107.943 20.8036 107.972 26.8292 107.81 27.6267H105.196C105.033 27.0951 104.974 21.926 105.122 20.2719H105.107Z" fill="#050A09"/>
<path d="M107.854 19.0313H105.107V16.7864H107.854V19.0313Z" fill="#050A09"/>
<path d="M134.6 37.5L134.216 36.4097H132.714L132.33 37.5H131.651L133.112 33.5576H133.826L135.284 37.5H134.6ZM134.049 35.8564L133.676 34.7822C133.661 34.7357 133.641 34.6703 133.614 34.5862C133.587 34.5002 133.56 34.4134 133.533 34.3257C133.507 34.2362 133.484 34.161 133.466 34.1001C133.448 34.1735 133.426 34.2559 133.399 34.3472C133.374 34.4367 133.349 34.5208 133.324 34.5996C133.301 34.6784 133.283 34.7393 133.27 34.7822L132.894 35.8564H134.049Z" fill="#050A09"/>
<path d="M128.052 33.5737C128.391 33.5737 128.67 33.6149 128.89 33.6973C129.112 33.7796 129.277 33.9049 129.385 34.0732C129.494 34.2415 129.548 34.4555 129.548 34.7151C129.548 34.9084 129.513 35.0732 129.441 35.2092C129.369 35.3453 129.275 35.4581 129.159 35.5476C129.043 35.6371 128.918 35.7087 128.786 35.7625L129.9 37.5H129.172L128.224 35.9263H127.593V37.5H126.949V33.5737H128.052ZM128.01 34.1108H127.593V35.3945H128.039C128.338 35.3945 128.555 35.339 128.689 35.228C128.825 35.117 128.893 34.9532 128.893 34.7366C128.893 34.5092 128.821 34.3481 128.676 34.2532C128.532 34.1583 128.31 34.1108 128.01 34.1108Z" fill="#050A09"/>
<path d="M123.563 37.5V33.5737H124.207V37.5H123.563Z" fill="#050A09"/>
<path d="M121.009 37.5H118.785V33.5737H121.009V34.1162H119.43V35.1824H120.91V35.7222H119.43V36.9548H121.009V37.5Z" fill="#050A09"/>
<path d="M114.089 37.5V33.5737H114.733V36.9521H116.401V37.5H114.089Z" fill="#050A09"/>
<path d="M110.703 37.5V33.5737H111.347V37.5H110.703Z" fill="#050A09"/>
<path d="M108.24 36.4312C108.24 36.6639 108.183 36.8644 108.068 37.0327C107.956 37.201 107.793 37.3299 107.58 37.4194C107.368 37.509 107.116 37.5537 106.822 37.5537C106.679 37.5537 106.542 37.5457 106.411 37.5295C106.281 37.5134 106.157 37.4902 106.041 37.4597C105.926 37.4275 105.821 37.389 105.727 37.3442V36.7373C105.886 36.8071 106.064 36.8707 106.261 36.928C106.458 36.9835 106.658 37.0112 106.863 37.0112C107.029 37.0112 107.167 36.9897 107.276 36.9468C107.387 36.902 107.469 36.8394 107.523 36.7588C107.577 36.6764 107.604 36.5806 107.604 36.4714C107.604 36.3551 107.572 36.2566 107.51 36.176C107.447 36.0955 107.352 36.0221 107.225 35.9558C107.1 35.8878 106.942 35.8153 106.752 35.7383C106.624 35.6864 106.5 35.6273 106.382 35.561C106.265 35.4948 106.162 35.4169 106.07 35.3274C105.979 35.2379 105.906 35.1322 105.853 35.0105C105.801 34.887 105.775 34.7419 105.775 34.5754C105.775 34.3534 105.828 34.1637 105.933 34.0061C106.041 33.8486 106.191 33.7277 106.385 33.6436C106.58 33.5594 106.807 33.5173 107.067 33.5173C107.273 33.5173 107.466 33.5388 107.647 33.5818C107.829 33.6248 108.008 33.6856 108.184 33.7644L107.98 34.2827C107.819 34.2165 107.662 34.1637 107.51 34.1243C107.359 34.0849 107.205 34.0652 107.048 34.0652C106.912 34.0652 106.796 34.0858 106.701 34.127C106.607 34.1681 106.534 34.2263 106.484 34.3015C106.436 34.3749 106.411 34.4626 106.411 34.5647C106.411 34.6793 106.439 34.776 106.495 34.8547C106.552 34.9317 106.64 35.0024 106.758 35.0669C106.878 35.1313 107.032 35.203 107.22 35.2817C107.436 35.3713 107.62 35.4653 107.77 35.5637C107.922 35.6622 108.039 35.7804 108.119 35.9182C108.2 36.0543 108.24 36.2253 108.24 36.4312Z" fill="#050A09"/>
<path d="M103.065 37.5L102.681 36.4097H101.18L100.796 37.5H100.117L101.578 33.5576H102.292L103.75 37.5H103.065ZM102.515 35.8564L102.142 34.7822C102.127 34.7357 102.107 34.6703 102.08 34.5862C102.053 34.5002 102.026 34.4134 101.999 34.3257C101.972 34.2362 101.95 34.161 101.932 34.1001C101.914 34.1735 101.892 34.2559 101.865 34.3472C101.84 34.4367 101.815 34.5208 101.79 34.5996C101.767 34.6784 101.749 34.7393 101.736 34.7822L101.36 35.8564H102.515Z" fill="#050A09"/>
<path d="M96.5183 33.5737C96.8567 33.5737 97.136 33.6149 97.3562 33.6973C97.5782 33.7796 97.7429 33.9049 97.8503 34.0732C97.9596 34.2415 98.0142 34.4555 98.0142 34.7151C98.0142 34.9084 97.9784 35.0732 97.9067 35.2092C97.8351 35.3453 97.7411 35.4581 97.6248 35.5476C97.5084 35.6371 97.384 35.7087 97.2515 35.7625L98.366 37.5H97.6382L96.6902 35.9263H96.0591V37.5H95.4146V33.5737H96.5183ZM96.4753 34.1108H96.0591V35.3945H96.5049C96.8039 35.3945 97.0205 35.339 97.1548 35.228C97.2909 35.117 97.3589 34.9532 97.3589 34.7366C97.3589 34.5092 97.2864 34.3481 97.1414 34.2532C96.9981 34.1583 96.7761 34.1108 96.4753 34.1108Z" fill="#050A09"/>
<path d="M90.0842 33.5737H91.2524C91.7591 33.5737 92.1414 33.6471 92.3992 33.7939C92.657 33.9408 92.7859 34.1941 92.7859 34.554C92.7859 34.7043 92.759 34.8404 92.7053 34.9622C92.6534 35.0821 92.5773 35.1815 92.4771 35.2603C92.3768 35.3372 92.2533 35.3892 92.1064 35.416V35.4429C92.2586 35.4697 92.3938 35.5172 92.512 35.5852C92.6319 35.6532 92.7259 35.7508 92.7939 35.8779C92.8638 36.005 92.8987 36.1698 92.8987 36.3721C92.8987 36.612 92.8414 36.8161 92.7268 36.9844C92.614 37.1527 92.452 37.2807 92.2407 37.3684C92.0312 37.4561 91.7824 37.5 91.4941 37.5H90.0842V33.5737ZM90.7288 35.1931H91.3464C91.6383 35.1931 91.8406 35.1457 91.9534 35.0508C92.0662 34.9559 92.1226 34.8171 92.1226 34.6345C92.1226 34.4483 92.0554 34.314 91.9211 34.2317C91.7887 34.1493 91.5774 34.1082 91.2874 34.1082H90.7288V35.1931ZM90.7288 35.7141V36.9602H91.4082C91.709 36.9602 91.9202 36.902 92.042 36.7856C92.1637 36.6693 92.2246 36.5117 92.2246 36.313C92.2246 36.1912 92.1969 36.0856 92.1414 35.9961C92.0876 35.9066 91.999 35.8376 91.8755 35.7893C91.752 35.7392 91.5854 35.7141 91.376 35.7141H90.7288Z" fill="#050A09"/>
<path d="M82.2537 37.5V33.5737H82.8982V36.9521H84.5659V37.5H82.2537Z" fill="#050A09"/>
<path d="M79.5444 33.5737V36.1143C79.5444 36.3882 79.4862 36.6335 79.3699 36.8501C79.2553 37.0667 79.0816 37.2386 78.8489 37.3657C78.6161 37.491 78.3234 37.5537 77.9707 37.5537C77.4676 37.5537 77.0845 37.4221 76.8213 37.1589C76.5599 36.894 76.4292 36.5422 76.4292 36.1035V33.5737H77.0737V36.0471C77.0737 36.3748 77.1507 36.6165 77.3047 36.7722C77.4587 36.928 77.6887 37.0059 77.9949 37.0059C78.2061 37.0059 78.378 36.9692 78.5105 36.8958C78.6448 36.8206 78.7432 36.7113 78.8059 36.5681C78.8704 36.4231 78.9026 36.2485 78.9026 36.0444V33.5737H79.5444Z" fill="#050A09"/>
<path d="M73.999 36.4312C73.999 36.6639 73.9417 36.8644 73.8271 37.0327C73.7144 37.201 73.5514 37.3299 73.3384 37.4194C73.1271 37.509 72.8747 37.5537 72.5811 37.5537C72.4378 37.5537 72.3009 37.5457 72.1702 37.5295C72.0395 37.5134 71.9159 37.4902 71.7996 37.4597C71.685 37.4275 71.5802 37.389 71.4854 37.3442V36.7373C71.6447 36.8071 71.8228 36.8707 72.0198 36.928C72.2167 36.9835 72.4172 37.0112 72.6213 37.0112C72.7878 37.0112 72.9257 36.9897 73.0349 36.9468C73.1459 36.902 73.2283 36.8394 73.282 36.7588C73.3357 36.6764 73.3625 36.5806 73.3625 36.4714C73.3625 36.3551 73.3312 36.2566 73.2686 36.176C73.2059 36.0955 73.111 36.0221 72.9839 35.9558C72.8586 35.8878 72.701 35.8153 72.5112 35.7383C72.3823 35.6864 72.2588 35.6273 72.1406 35.561C72.0243 35.4948 71.9204 35.4169 71.8291 35.3274C71.7378 35.2379 71.6653 35.1322 71.6116 35.0105C71.5597 34.887 71.5337 34.7419 71.5337 34.5754C71.5337 34.3534 71.5865 34.1637 71.6921 34.0061C71.7996 33.8486 71.95 33.7277 72.1433 33.6436C72.3385 33.5594 72.5658 33.5173 72.8254 33.5173C73.0313 33.5173 73.2247 33.5388 73.4055 33.5818C73.5881 33.6248 73.7672 33.6856 73.9426 33.7644L73.7385 34.2827C73.5774 34.2165 73.4207 34.1637 73.2686 34.1243C73.1182 34.0849 72.9642 34.0652 72.8066 34.0652C72.6706 34.0652 72.5551 34.0858 72.4602 34.127C72.3653 34.1681 72.2928 34.2263 72.2427 34.3015C72.1943 34.3749 72.1702 34.4626 72.1702 34.5647C72.1702 34.6793 72.1979 34.776 72.2534 34.8547C72.3107 34.9317 72.3984 35.0024 72.5166 35.0669C72.6366 35.1313 72.7905 35.203 72.9785 35.2817C73.1951 35.3713 73.3787 35.4653 73.5291 35.5637C73.6812 35.6622 73.7976 35.7804 73.8782 35.9182C73.9587 36.0543 73.999 36.2253 73.999 36.4312Z" fill="#050A09"/>
<path d="M66.0505 35.5315C66.0505 35.8341 66.012 36.1098 65.9351 36.3586C65.8599 36.6057 65.7462 36.8188 65.594 36.9978C65.4418 37.175 65.2511 37.312 65.022 37.4087C64.7928 37.5054 64.5243 37.5537 64.2163 37.5537C63.903 37.5537 63.6309 37.5054 63.3999 37.4087C63.1707 37.312 62.9801 37.1742 62.8279 36.9951C62.6775 36.8161 62.5647 36.6021 62.4895 36.3533C62.4143 36.1044 62.3767 35.8287 62.3767 35.5261C62.3767 35.1215 62.443 34.7688 62.5754 34.468C62.7097 34.1654 62.9129 33.9309 63.1851 33.7644C63.459 33.5961 63.8045 33.512 64.2217 33.512C64.6299 33.512 64.9692 33.5952 65.2395 33.7617C65.5098 33.9282 65.7122 34.1628 65.8464 34.4653C65.9825 34.7661 66.0505 35.1215 66.0505 35.5315ZM63.0535 35.5315C63.0535 35.8341 63.0946 36.0964 63.177 36.3184C63.2594 36.5386 63.3856 36.7087 63.5557 36.8286C63.7275 36.9468 63.9478 37.0059 64.2163 37.0059C64.4867 37.0059 64.7069 36.9468 64.877 36.8286C65.047 36.7087 65.1724 36.5386 65.2529 36.3184C65.3335 36.0964 65.3738 35.8341 65.3738 35.5315C65.3738 35.0714 65.2816 34.7115 65.0972 34.4519C64.9146 34.1905 64.6227 34.0598 64.2217 34.0598C63.9531 34.0598 63.732 34.1189 63.5583 34.2371C63.3865 34.3552 63.2594 34.5244 63.177 34.7446C63.0946 34.9631 63.0535 35.2253 63.0535 35.5315Z" fill="#050A09"/>
<path d="M59.6565 37.5L59.2725 36.4097H57.7712L57.3872 37.5H56.7078L58.1687 33.5576H58.8831L60.3413 37.5H59.6565ZM59.106 35.8564L58.7327 34.7822C58.7183 34.7357 58.6978 34.6703 58.6709 34.5862C58.644 34.5002 58.6172 34.4134 58.5903 34.3257C58.5635 34.2362 58.5411 34.161 58.5232 34.1001C58.5053 34.1735 58.4829 34.2559 58.4561 34.3472C58.431 34.4367 58.4059 34.5208 58.3809 34.5996C58.3576 34.6784 58.3397 34.7393 58.3271 34.7822L57.9512 35.8564H59.106ZM57.4597 33.2085C57.4705 33.0832 57.4937 32.974 57.5295 32.8809C57.5653 32.786 57.6119 32.7072 57.6692 32.6445C57.7283 32.5801 57.7954 32.5317 57.8706 32.4995C57.9476 32.4673 58.0308 32.4512 58.1204 32.4512C58.1991 32.4512 58.2743 32.4664 58.3459 32.4968C58.4194 32.5273 58.4901 32.5631 58.5581 32.6042C58.6279 32.6436 58.6951 32.6785 58.7595 32.709C58.8258 32.7394 58.8893 32.7546 58.9502 32.7546C59.02 32.7546 59.0791 32.7296 59.1274 32.6794C59.1776 32.6293 59.2152 32.5514 59.2402 32.4458H59.5706C59.5491 32.6929 59.4784 32.8818 59.3584 33.0125C59.2384 33.1414 59.0889 33.2058 58.9099 33.2058C58.8347 33.2058 58.7604 33.1906 58.687 33.1602C58.6154 33.1279 58.5456 33.0921 58.4775 33.0527C58.4095 33.0133 58.3424 32.9784 58.2761 32.948C58.2099 32.9176 58.1454 32.9023 58.0828 32.9023C58.0111 32.9023 57.9503 32.9274 57.9001 32.9775C57.8518 33.0277 57.816 33.1047 57.7927 33.2085H57.4597Z" fill="#050A09"/>
<path d="M53.8372 37.5V33.5737H54.4817V37.5H53.8372Z" fill="#050A09"/>
<path d="M51.1011 37.5H50.3088L48.386 34.366H48.3618C48.369 34.4716 48.3752 34.5835 48.3806 34.7017C48.3878 34.8198 48.3931 34.9416 48.3967 35.0669C48.4021 35.1922 48.4066 35.3193 48.4102 35.4482V37.5H47.8247V33.5737H48.6116L50.5317 36.6863H50.5505C50.547 36.595 50.5425 36.4902 50.5371 36.3721C50.5317 36.2539 50.5264 36.1322 50.521 36.0068C50.5174 35.8797 50.5147 35.7571 50.5129 35.6389V33.5737H51.1011V37.5Z" fill="#050A09"/>
<path d="M45.1152 33.5737V36.1143C45.1152 36.3882 45.057 36.6335 44.9407 36.8501C44.8261 37.0667 44.6524 37.2386 44.4197 37.3657C44.1869 37.491 43.8942 37.5537 43.5415 37.5537C43.0384 37.5537 42.6553 37.4221 42.3921 37.1589C42.1307 36.894 42 36.5422 42 36.1035V33.5737H42.6445V36.0471C42.6445 36.3748 42.7215 36.6165 42.8755 36.7722C43.0295 36.928 43.2595 37.0059 43.5657 37.0059C43.7769 37.0059 43.9488 36.9692 44.0813 36.8958C44.2156 36.8206 44.314 36.7113 44.3767 36.5681C44.4412 36.4231 44.4734 36.2485 44.4734 36.0444V33.5737H45.1152Z" fill="#050A09"/>
</svg>
