<svg width="108" height="90" viewBox="0 0 108 90" fill="none" xmlns="http://www.w3.org/2000/svg">
<path d="M47.9718 0H53.2401C52.075 4.59287 50.9437 9.1182 49.7617 13.7786C52.3959 13.3058 54.9118 12.7655 57.5291 12.1069C56.5835 8.05441 55.4522 4.08631 54.4897 0.0168856H59.5553C60.8555 3.32646 62.1557 6.65291 63.4897 10.03C64.8743 9.43903 65.9381 8.57787 66.6811 7.34522C67.1876 8.20638 67.0019 9.40526 66.2927 10.2495C65.6173 11.06 64.7392 11.6173 63.7767 11.9719C61.8349 12.6642 59.9099 13.3903 57.9174 13.8968C54.8274 14.6904 51.6867 15.3152 48.5628 16.0244C46.0976 16.5816 43.666 17.257 41.3527 18.2702C40.6942 18.5572 40.0525 18.9287 39.3602 19.3002C39.3264 18.3208 39.7148 17.5441 40.4071 16.9024C40.4915 16.8349 40.576 16.7505 40.6773 16.7167C41.5722 16.3959 41.8424 15.6023 42.1463 14.8255C43.9531 10.1651 45.7936 5.50469 47.6173 0.844278C47.7355 0.557224 47.8705 0.253283 47.9718 0ZM60.349 23.1332C62.848 22.4071 65.2627 21.7317 67.5591 20.4822C69.5178 25.4972 71.4597 30.4616 73.4184 35.4597C69.9737 35.0207 66.5966 34.5985 63.1182 34.1426C62.2064 30.546 61.2777 26.8818 60.3321 23.1332H60.349ZM35.4765 30.5798C35.3752 28.5366 36.0675 26.8312 37.6717 25.531C38.8705 24.5685 40.2551 23.9606 41.6904 23.4709C45.0675 22.2889 48.5628 21.5122 52.0413 20.6848C55.8405 19.773 59.6567 18.9625 63.3208 17.5948C64.2833 17.2402 65.2289 16.8011 66.1238 16.3115C67.4916 15.5685 68.6736 14.5891 69.3659 13.1201C70.1764 14.7918 69.6529 17.0038 68.2176 18.1013C67.1201 18.9456 65.8537 19.5366 64.5704 20.0263C61.1257 21.3602 57.546 22.2214 53.9662 23.1163C50.6229 23.9437 47.2795 24.7711 43.97 25.7167C42.4334 26.1557 40.9475 26.7636 39.4953 27.4222C37.9081 28.1482 36.4897 29.1276 35.4428 30.5966L35.4765 30.5798ZM68.3358 9.33772C68.6229 10.6886 68.7411 11.9043 68.0488 13.0357C67.5422 13.863 66.7824 14.4372 65.955 14.91C64.4184 15.7711 62.7467 16.379 61.0582 16.818C57.6304 17.713 54.1689 18.5741 50.7242 19.4015C47.2964 20.2289 43.8687 21.0394 40.6097 22.424C39.4446 22.9306 38.3302 23.5385 37.3002 24.5178C37.0975 23.2345 37.2664 22.1876 38.0938 21.2927C38.9043 20.4146 39.9512 19.9081 41.0319 19.4691C43.1932 18.5741 45.439 17.9662 47.7186 17.4428C50.8593 16.7167 54.0169 16.0582 57.1576 15.3321C59.3696 14.8255 61.5816 14.2345 63.6754 13.3227C65.06 12.7317 66.3602 12.0056 67.3227 10.8236C67.6773 10.3846 67.9475 9.89494 68.3527 9.30394L68.3358 9.33772ZM34.0413 35.561C34.3283 34.7843 34.6491 34.1088 34.8518 33.3996C35.409 31.424 36.7767 30.2083 38.5159 29.2965C40.9306 28.0469 43.5309 27.2871 46.1651 26.6454C46.2158 26.6454 46.2664 26.6792 46.4184 26.713C45.8612 29.2289 45.1857 31.728 44.5779 34.1426C41.0488 34.6154 37.621 35.0882 34.0413 35.561Z" fill="#050A09"/>
<path d="M18.6585 86.5891C18.6585 87.332 18.5235 87.9399 18.2364 88.4296C17.9494 88.9193 17.561 89.2908 17.0375 89.5441C16.5141 89.7973 15.9062 89.9155 15.1801 89.9155H13.2383V83.4484H15.3659C16.0413 83.4484 16.6323 83.5666 17.122 83.803C17.6116 84.0394 17.9831 84.394 18.2533 84.8499C18.5235 85.3058 18.6417 85.8799 18.6417 86.5722L18.6585 86.5891ZM17.0713 86.6397C17.0713 86.2007 17.0038 85.8292 16.8856 85.5591C16.7674 85.2889 16.5816 85.0694 16.3283 84.9174C16.0919 84.7823 15.788 84.7148 15.4165 84.7148H14.7749V88.6491H15.2645C15.8724 88.6491 16.3283 88.4803 16.6154 88.1426C16.9024 87.8048 17.0544 87.2983 17.0544 86.6397H17.0713Z" fill="#050A09"/>
<path d="M29.3137 86.6735C29.3137 87.1801 29.2462 87.636 29.128 88.0413C29.0098 88.4465 28.824 88.8011 28.5707 89.0882C28.3175 89.3921 27.9966 89.6116 27.6083 89.7636C27.2199 89.9156 26.7471 90 26.2068 90C25.6664 90 25.2105 89.9156 24.8221 89.7636C24.4338 89.6116 24.1129 89.3752 23.8597 89.0882C23.6064 88.8011 23.4206 88.4465 23.3024 88.0413C23.1842 87.636 23.1167 87.1801 23.1167 86.6735C23.1167 85.9981 23.2349 85.424 23.4544 84.9174C23.6739 84.4277 24.0116 84.0394 24.4844 83.7692C24.9403 83.499 25.5313 83.364 26.2405 83.364C26.9497 83.364 27.5407 83.499 27.9966 83.7692C28.4525 84.0394 28.7902 84.4277 29.0098 84.9343C29.2293 85.4409 29.3306 86.015 29.3306 86.6904L29.3137 86.6735ZM24.7208 86.6735C24.7208 87.0957 24.7715 87.4671 24.8728 87.7711C24.9741 88.075 25.143 88.3114 25.3625 88.4803C25.582 88.6491 25.869 88.7336 26.2068 88.7336C26.5445 88.7336 26.8484 88.6491 27.0679 88.4803C27.2874 88.3114 27.4394 88.0919 27.5407 87.7711C27.642 87.4671 27.6927 87.0957 27.6927 86.6735C27.6927 86.0319 27.5745 85.5253 27.355 85.1707C27.1355 84.8161 26.7471 84.6304 26.2236 84.6304C25.869 84.6304 25.582 84.7148 25.3625 84.8837C25.143 85.0525 24.9741 85.2889 24.8728 85.5928C24.7715 85.8968 24.7208 86.2683 24.7208 86.6904V86.6735Z" fill="#050A09"/>
<path d="M41.9607 83.4484C42.7881 83.4484 43.3959 83.6341 43.8012 83.9887C44.1896 84.3433 44.3922 84.8499 44.3922 85.4915C44.3922 85.7786 44.3415 86.0656 44.2571 86.3189C44.1727 86.5722 44.0376 86.8086 43.835 87.0281C43.6323 87.2307 43.3791 87.3996 43.0582 87.5178C42.7374 87.636 42.349 87.7035 41.8762 87.7035H41.3359V89.9324H39.7993V83.4653H41.9438L41.9607 83.4484ZM41.8931 84.7148H41.3359V86.4371H41.7412C41.9438 86.4371 42.1464 86.4033 42.2984 86.3527C42.4503 86.2851 42.5854 86.2007 42.6699 86.0656C42.7543 85.9305 42.8049 85.7617 42.8049 85.5422C42.8049 85.272 42.7374 85.0694 42.5854 84.9343C42.4335 84.7992 42.1971 84.7148 41.8931 84.7148Z" fill="#050A09"/>
<path d="M52.4633 89.9156L52.0581 88.531H49.8123L49.4071 89.9156H47.7185L49.9136 83.4146H51.8892L54.1181 89.9156H52.4296H52.4633ZM51.332 85.9475C51.2982 85.8462 51.2645 85.6942 51.2138 85.5084C51.1632 85.3227 51.1125 85.137 51.0618 84.9512C51.0112 84.7655 50.9774 84.5966 50.9436 84.4615C50.9268 84.5966 50.8761 84.7655 50.8254 84.9512C50.7748 85.137 50.7241 85.3396 50.6735 85.5253C50.6228 85.7111 50.5891 85.8462 50.5553 85.9475L50.1669 87.2477H51.7035L51.3151 85.9475H51.332Z" fill="#050A09"/>
<path d="M60.3323 83.4484C60.9233 83.4484 61.3961 83.5159 61.7845 83.6679C62.1728 83.8198 62.4599 84.0225 62.6456 84.3095C62.8314 84.5966 62.9327 84.9512 62.9327 85.3733C62.9327 85.6604 62.882 85.8968 62.7807 86.1163C62.6794 86.3358 62.5443 86.5215 62.3754 86.6904C62.2066 86.8593 62.004 86.9943 61.7845 87.0957L63.6756 89.9155H61.9533L60.5012 87.484H59.8933V89.9155H58.3567V83.4484H60.3492H60.3323ZM60.2816 84.6641H59.8933V86.2851H60.2816C60.6531 86.2851 60.9233 86.2176 61.109 86.0825C61.2948 85.9474 61.3792 85.7279 61.3792 85.4409C61.3792 85.272 61.3454 85.12 61.261 85.0187C61.1766 84.9005 61.0584 84.8161 60.9064 84.7654C60.7544 84.7148 60.5349 84.681 60.2816 84.681V84.6641Z" fill="#050A09"/>
<path d="M71.7976 89.9156L71.3923 88.531H69.1465L68.7413 89.9156H67.0527L69.2479 83.4146H71.2235L73.4524 89.9156H71.7638H71.7976ZM70.6662 85.9475C70.6325 85.8462 70.5987 85.6942 70.548 85.5084C70.4974 85.3227 70.4467 85.137 70.3961 84.9512C70.3454 84.7655 70.3116 84.5966 70.2779 84.4615C70.261 84.5966 70.2103 84.7655 70.1597 84.9512C70.109 85.137 70.0584 85.3396 70.0077 85.5253C69.9571 85.7111 69.9233 85.8462 69.8895 85.9475L69.5011 87.2477H71.0377L70.6494 85.9475H70.6662Z" fill="#050A09"/>
<path d="M83.6175 89.9155H81.625L79.0246 85.1876H78.9909C78.9909 85.3564 79.0077 85.5422 79.0246 85.7448C79.0246 85.9474 79.0415 86.15 79.0584 86.3527C79.0584 86.5553 79.0584 86.741 79.0753 86.9268V89.9155H77.6907V83.4483H79.6663L82.2667 88.1256H82.3004C82.3004 87.9568 82.3004 87.771 82.2835 87.5853C82.2835 87.3827 82.2836 87.1969 82.2667 86.9943C82.2667 86.7917 82.2667 86.6228 82.2498 86.4371V83.4315H83.6344V89.8986L83.6175 89.9155Z" fill="#050A09"/>
<path d="M92.5329 89.9156L92.1277 88.5309H89.8819L89.4766 89.9156H87.7881L89.9832 83.4146H91.9588L94.1877 89.9156H92.4992H92.5329ZM93.0395 81.5741C92.9382 81.6585 92.82 81.7598 92.668 81.878C92.516 81.9962 92.3472 82.1313 92.1783 82.2495C92.0095 82.3846 91.8406 82.5028 91.6718 82.621C91.5029 82.7392 91.3678 82.8405 91.2496 82.9081H90.2365V82.7899C90.3378 82.6717 90.456 82.5366 90.5911 82.3846C90.7262 82.2326 90.8613 82.0638 90.9963 81.9118C91.1314 81.743 91.2496 81.591 91.3341 81.4559H93.0226V81.5403L93.0395 81.5741ZM91.4185 85.9475C91.3847 85.8461 91.3509 85.6942 91.3003 85.5084C91.2496 85.3227 91.199 85.137 91.1483 84.9512C91.0977 84.7655 91.0639 84.5966 91.0301 84.4615C91.0132 84.5966 90.9626 84.7655 90.9119 84.9512C90.8613 85.137 90.8106 85.3396 90.7599 85.5253C90.7093 85.7111 90.6755 85.8461 90.6417 85.9475L90.2534 87.2476H91.79L91.4016 85.9475H91.4185Z" fill="#050A09"/>
<path d="M77.3863 51.3828C77.285 49.3903 76.1706 48.1745 74.2118 47.7693C71.9829 47.2965 69.8047 47.7017 67.5927 48.1745V50.606C68.285 50.4709 68.9098 50.3359 69.5345 50.2345C70.8178 50.015 72.1011 49.8968 73.3844 50.1332C73.7222 50.2008 74.043 50.2852 74.2118 50.7073C73.6208 51.1126 73.6208 51.1126 73.0805 51.1295C72.3207 51.1295 71.5608 51.1295 70.801 51.1295C69.9905 51.1295 69.2475 51.3152 68.5383 51.7205C67.5252 52.3115 67.2719 53.2402 67.3732 54.3208C67.4576 55.3171 68.0486 55.9756 68.9604 56.1951C70.7672 56.6679 72.4726 56.4822 73.9079 55.0976C74.0092 54.9963 74.1612 54.9287 74.2963 54.8443C74.4482 55.334 74.5664 55.7561 74.6846 56.1783H77.4032C77.4032 54.5404 77.4708 52.97 77.4032 51.3996L77.3863 51.3828ZM70.8516 54.0169C70.649 53.9494 70.4295 53.713 70.3619 53.5103C70.2775 53.2233 70.4464 52.9531 70.7672 52.8687C71.0374 52.8011 71.3244 52.7674 71.5946 52.7505C72.3713 52.6998 73.1649 52.6661 73.9923 52.6154C73.4351 53.6454 71.8816 54.3715 70.8516 54.0338V54.0169Z" fill="#050A09"/>
<path d="M77.2679 51.3828C77.1666 49.3903 76.0522 48.1745 74.0934 47.7693C71.8645 47.2965 69.6863 47.7017 67.4743 48.1745V50.606C68.1666 50.4709 68.7914 50.3359 69.4161 50.2345C70.6994 50.015 71.9827 49.8968 73.266 50.1332C73.6038 50.2008 73.9246 50.2852 74.0934 50.7073C73.5024 51.1126 73.5024 51.1126 72.9621 51.1295C72.2022 51.1295 71.4424 51.1295 70.6826 51.1295C69.872 51.1295 69.1291 51.3152 68.4199 51.7205C67.4068 52.3115 67.1535 53.2402 67.2548 54.3208C67.3392 55.3171 67.9302 55.9756 68.842 56.1951C70.6488 56.6679 72.3542 56.4822 73.7895 55.0976C73.8908 54.9963 74.0428 54.9287 74.1779 54.8443C74.3298 55.334 74.448 55.7561 74.5662 56.1783H77.2848C77.2848 54.5404 77.3523 52.97 77.2848 51.3996L77.2679 51.3828ZM70.7332 54.0169C70.5306 53.9494 70.3111 53.713 70.2435 53.5103C70.1591 53.2233 70.328 52.9531 70.6488 52.8687C70.9189 52.8011 71.206 52.7674 71.4762 52.7505C72.2529 52.6998 73.0465 52.6661 73.8739 52.6154C73.3167 53.6454 71.7632 54.3715 70.7332 54.0338V54.0169Z" fill="#050A09"/>
<path d="M27.0335 51.3828C26.9322 49.3903 25.8178 48.1745 23.8591 47.7693C21.6302 47.2965 19.4519 47.7017 17.2399 48.1745V50.606C17.9322 50.4709 18.557 50.3359 19.1818 50.2345C20.4651 50.015 21.7484 49.8968 23.0317 50.1332C23.3694 50.2008 23.6902 50.2852 23.8591 50.7073C23.2681 51.1126 23.2681 51.1126 22.7277 51.1295C21.9679 51.1295 21.208 51.1295 20.4482 51.1295C19.6377 51.1295 18.8947 51.3152 18.1855 51.7205C17.1724 52.3115 16.9191 53.2402 17.0204 54.3208C17.1048 55.3171 17.6958 55.9756 18.6077 56.1951C20.4144 56.6679 22.1198 56.4822 23.5551 55.0976C23.6564 54.9963 23.8084 54.9287 23.9435 54.8443C24.0955 55.334 24.2137 55.7561 24.3319 56.1783H27.0504C27.0504 54.5404 27.118 52.97 27.0504 51.3996L27.0335 51.3828ZM20.5157 54.0169C20.3131 53.9494 20.0936 53.713 20.026 53.5103C19.9416 53.2233 20.1105 52.9531 20.4313 52.8687C20.7015 52.8011 20.9885 52.7674 21.2587 52.7505C22.0354 52.6998 22.829 52.6661 23.6564 52.6154C23.0992 53.6454 21.5457 54.3715 20.5157 54.0338V54.0169Z" fill="#050A09"/>
<path d="M95.1501 53.8649C94.6942 53.6623 94.2721 53.3921 94.2721 52.7167H101.229C101.161 52.1426 101.128 51.6867 101.043 51.2477C100.722 49.6773 99.8781 48.5122 98.3246 47.9719C96.6867 47.4147 95.0151 47.3809 93.3772 48.0225C90.7768 49.0357 89.865 52.4128 91.5704 54.6417C92.1445 55.4015 92.955 55.8068 93.8331 56.0263C95.91 56.5666 98.0038 56.516 100.081 56.0094C100.351 55.9419 100.587 55.8068 100.79 55.7224V53.4259C99.7937 53.6623 98.8818 53.9325 97.9531 54.1013C97.0076 54.2871 96.0451 54.2702 95.1333 53.8649H95.1501ZM96.1802 49.9644C97.2102 49.9981 97.683 50.319 97.9194 51.2308H94.0864C94.4241 50.2177 94.9475 49.9306 96.1633 49.9644H96.1802Z" fill="#050A09"/>
<path d="M61.9869 43.9193V48.0563C61.0582 47.8874 60.2139 47.6679 59.3528 47.5835C57.3771 47.3809 55.6548 48.4278 55.0638 50.1501C54.5741 51.636 54.6417 53.1219 55.4184 54.4897C56.1614 55.773 57.2758 56.5328 58.8293 56.3809C59.7411 56.2964 60.5854 56.0094 61.3453 55.469C61.5141 55.3508 61.6998 55.2326 61.9362 55.0807C61.9531 55.469 61.97 55.773 62.0038 56.1613H65.1783V43.5816C64.0976 43.6998 63.0845 43.8011 61.9869 43.9193ZM61.97 52.3452C61.97 52.4803 61.9531 52.6323 61.8856 52.7505C61.4128 53.6285 59.9775 54.0507 59.0657 53.5947C58.1708 53.1557 57.8162 52.075 58.2045 51.0619C58.4409 50.454 58.9137 50.1839 59.4541 50.0657C60.2815 49.8799 61.1089 49.863 61.97 50.2514C61.97 50.9606 61.97 51.6529 61.97 52.3452Z" fill="#050A09"/>
<path d="M85.9644 43.9193V48.0563C85.0357 47.8874 84.1914 47.6679 83.3303 47.5835C81.3547 47.3809 79.6324 48.4278 79.0414 50.1501C78.5517 51.636 78.6192 53.1219 79.396 54.4897C80.1389 55.773 81.2534 56.5328 82.8068 56.3809C83.7187 56.2964 84.5629 56.0094 85.3228 55.469C85.4916 55.3508 85.6774 55.2326 85.9138 55.0807C85.9307 55.469 85.9475 55.773 85.9813 56.1613H89.1558V43.5816C88.0751 43.6998 87.062 43.8011 85.9644 43.9193ZM85.9476 52.3452C85.9476 52.4803 85.9307 52.6323 85.8631 52.7505C85.3903 53.6285 83.9551 54.0507 83.0432 53.5947C82.1483 53.1557 81.7937 52.075 82.1821 51.0619C82.4185 50.454 82.8913 50.1839 83.4316 50.0657C84.259 49.8799 85.0864 49.863 85.9476 50.2514C85.9476 50.9606 85.9476 51.6529 85.9476 52.3452Z" fill="#050A09"/>
<path d="M44.9492 47.7861H48.1406V56.1951H44.9999C44.9661 55.8912 44.9323 55.5873 44.8817 55.182C44.6115 55.3509 44.392 55.4859 44.1725 55.6379C43.4464 56.1783 42.619 56.4315 41.7241 56.4147C40.5421 56.3978 39.7822 55.8068 39.4107 54.6754C39.2588 54.2195 39.1068 53.7467 39.1068 53.2908C39.073 51.501 39.1068 49.6942 39.1068 47.803C40.1537 47.7355 41.15 47.7692 42.2137 47.7692C42.2475 48.0225 42.2813 48.242 42.2813 48.4616C42.2813 49.5253 42.2813 50.606 42.2813 51.6698C42.2813 52.0413 42.2982 52.4128 42.3826 52.7505C42.5852 53.5948 43.21 53.8818 43.9867 53.5103C44.6453 53.1895 45.0168 52.7505 44.9661 51.94C44.8986 50.5891 44.9492 49.2383 44.9492 47.803V47.7861Z" fill="#050A09"/>
<path d="M37.5871 53.2233V55.6885C37.3507 55.7899 37.1818 55.8912 36.9961 55.9418C35.1893 56.4484 33.3488 56.6004 31.5083 56.0938C28.452 55.2495 27.3038 51.6191 29.2963 49.1369C30.0224 48.2251 31.0524 47.8199 32.1499 47.651C33.9567 47.3977 35.7297 47.5835 37.5195 48.1914V50.6904C37.1481 50.5891 36.8272 50.5216 36.5233 50.4203C35.5439 50.1163 34.5646 49.9137 33.5346 49.9643C32.4201 50.015 31.6603 50.7073 31.5927 51.788C31.5083 52.97 32.1499 53.8142 33.315 53.9831C34.2775 54.1182 35.2062 53.8987 36.1349 53.6454C36.574 53.5272 36.9961 53.3921 37.5702 53.2233H37.5871Z" fill="#050A09"/>
<path d="M16.1763 46.4859V43.514H6.24756V44.0544V46.4859V56.3977H9.69221V52.0075H15.6359V48.985H9.69221V46.4859H16.1763Z" fill="#050A09"/>
<path d="M53.2906 43.4297H50.0486V56.3978H53.2906V43.4297Z" fill="#050A09"/>
<path d="M10.1145 61.9062C8.66229 61.9062 7.26079 61.94 5.8424 61.9062C5.31895 61.9062 5.11632 62.1088 4.93058 62.5648C3.83302 65.2496 2.70169 67.9006 1.58724 70.5854C1.06379 71.818 0.557223 73.0676 0 74.4353C1.08068 74.4353 2.06004 74.4353 3.02252 74.4353C3.394 74.4353 3.64728 74.334 3.83302 73.9963C4.57599 72.7299 5.67355 71.8687 6.99062 71.2946C8.02064 70.8387 9.08443 70.4841 10.2326 70.5685C10.7561 71.8856 11.2627 73.1689 11.7355 74.3846H15.3152C13.5591 70.1801 11.8368 66.077 10.1145 61.94V61.9062ZM5.48781 69.5554C6.197 67.7149 6.88931 65.8912 7.66604 63.8818C8.22327 65.334 8.71295 66.6004 9.20263 67.8499C7.91933 68.4409 6.75422 68.9644 5.47092 69.5554H5.48781Z" fill="#050A09"/>
<path d="M22.8629 62.092V66.2289C21.9342 66.0601 21.0899 65.8406 20.2287 65.7561C18.2531 65.5535 16.5308 66.6004 15.9398 68.3228C15.4501 69.8087 15.5177 71.2946 16.2944 72.6623C17.0374 73.9456 18.1518 74.7055 19.7053 74.5535C20.6171 74.4691 21.4614 74.182 22.2212 73.6417C22.3901 73.5235 22.5758 73.4053 22.8122 73.2533C22.8291 73.6417 22.846 73.9456 22.8798 74.334H26.0542V61.7543C24.9736 61.8725 23.9604 61.9738 22.8629 62.092ZM22.846 70.5179C22.846 70.653 22.8291 70.8049 22.7616 70.9231C22.2888 71.8012 20.8535 72.2233 19.9417 71.7674C19.0467 71.3284 18.6921 70.2477 19.0805 69.2346C19.3169 68.6267 19.7897 68.3565 20.33 68.2383C21.1574 68.0526 21.9848 68.0357 22.846 68.4241C22.846 69.1333 22.846 69.8256 22.846 70.5179Z" fill="#050A09"/>
<path d="M107.426 69.5723C107.325 67.5798 106.21 66.364 104.251 65.9588C102.023 65.486 99.8443 65.8912 97.6323 66.364V68.7955C98.3246 68.6605 98.9493 68.5254 99.5741 68.4241C100.857 68.2045 102.141 68.0863 103.424 68.3227C103.762 68.3903 104.083 68.4747 104.251 68.8969C103.66 69.3021 103.66 69.3021 103.12 69.319C102.36 69.319 101.6 69.319 100.841 69.319C100.03 69.319 99.287 69.5047 98.5779 69.91C97.5647 70.501 97.3114 71.4297 97.4127 72.5104C97.4972 73.5066 98.0882 74.1651 99 74.3847C100.807 74.8575 102.512 74.6717 103.947 73.2871C104.049 73.1858 104.201 73.1182 104.336 73.0338C104.488 73.5235 104.606 73.9456 104.724 74.3678H107.443C107.443 72.7299 107.51 71.1595 107.426 69.5892V69.5723ZM100.891 72.1895C100.689 72.122 100.469 71.8856 100.401 71.683C100.317 71.3959 100.486 71.1257 100.807 71.0413C101.077 70.9738 101.364 70.94 101.634 70.9231C102.411 70.8725 103.204 70.8387 104.032 70.788C103.475 71.8181 101.921 72.5441 100.891 72.2064V72.1895Z" fill="#050A09"/>
<path d="M42.8218 72.0375C42.3659 71.8349 41.9437 71.5647 41.9437 70.8893H48.9006C48.833 70.2983 48.7993 69.8593 48.7148 69.4203C48.394 67.8499 47.5497 66.6848 45.9963 66.1445C44.3584 65.5872 42.6867 65.5535 41.0488 66.1951C38.4484 67.2082 37.5366 70.5854 39.242 72.8142C39.8161 73.5741 40.6266 73.9794 41.5047 74.1989C43.5816 74.7392 45.6754 74.6885 47.7524 74.182C48.0225 74.1144 48.2589 73.9794 48.4616 73.8949V71.5985C47.4653 71.8349 46.5535 72.1051 45.6248 72.2739C44.6792 72.4597 43.7167 72.4428 42.8049 72.0375H42.8218ZM43.8518 68.1538C44.8818 68.1876 45.3546 68.5084 45.591 69.4203H41.758C42.0957 68.4071 42.6191 68.1201 43.8349 68.1538H43.8518Z" fill="#050A09"/>
<path d="M60.214 74.3678H57.1408C57.1408 74.0301 57.1408 73.7261 57.1408 73.4222C57.107 72.1558 57.0901 70.8893 57.0226 69.6229C56.9719 68.7618 56.5667 68.4409 55.6886 68.4916C54.9963 68.5423 54.4053 68.8462 53.7806 69.2852V74.3509H50.6567V66.1276C51.6699 66.0094 52.6661 65.8912 53.7468 65.773C53.7806 66.1783 53.7975 66.5666 53.8312 67.0732C54.0845 66.9381 54.2871 66.8199 54.4898 66.7017C55.5873 66.077 56.7187 65.621 58.0188 65.7899C58.9138 65.8912 59.5554 66.3302 59.8763 67.1745C60.0282 67.5629 60.214 67.985 60.214 68.3903C60.2477 70.3659 60.214 72.3246 60.214 74.3847V74.3678Z" fill="#050A09"/>
<path d="M77.1669 73.9625V71.4803C77.5553 71.6154 77.8592 71.7167 78.1801 71.8349C79.3621 72.2739 80.5947 72.409 81.8274 72.3246C82.182 72.3077 82.621 72.3415 82.8911 71.9025C82.5534 71.4634 82.0469 71.4803 81.6078 71.379C80.6791 71.1764 79.7335 70.9906 78.8217 70.7373C78.484 70.6529 78.1632 70.4334 77.8424 70.2477C76.5253 69.4878 76.4915 67.4109 77.8593 66.5497C78.4165 66.1951 79.075 65.9418 79.7335 65.8405C81.8274 65.5028 83.8705 65.9587 85.9305 66.4146V68.7617C84.0225 68.3734 82.1651 67.8161 80.2401 68.3734C80.2232 68.4409 80.2063 68.5084 80.1895 68.5591C80.3752 68.6435 80.5441 68.7786 80.7298 68.8293C81.5234 69.015 82.3339 69.1163 83.1107 69.3527C83.803 69.5554 84.4953 69.8086 85.1369 70.1464C86.0825 70.6698 86.2345 71.5985 86.1163 72.561C85.9981 73.439 85.4071 73.9794 84.5966 74.182C83.8367 74.3846 83.0431 74.5535 82.2833 74.5366C80.9662 74.5197 79.6491 74.3677 78.3489 74.2327C77.9606 74.1989 77.5891 74.0469 77.1838 73.9456L77.1669 73.9625Z" fill="#050A09"/>
<path d="M61.7676 68.3058V65.8912C62.1391 65.8912 62.4768 65.9081 62.7976 65.8912C63.5574 65.8237 63.777 65.5704 63.8107 64.8105C63.8107 64.2533 63.8107 63.6961 63.8107 63.1051C64.8407 62.97 65.7863 62.8518 66.8332 62.7167V65.8912H70.6663V68.2721H66.8501C66.8501 69.319 66.8164 70.2983 66.8501 71.2608C66.8839 71.7505 67.458 72.0544 68.1165 71.9531C68.6062 71.8856 69.0959 71.7336 69.5856 71.6154C69.822 71.5479 70.0584 71.4803 70.3454 71.379V73.8274C69.2985 74.3846 68.1503 74.4859 67.0021 74.5366C66.4449 74.5704 65.8708 74.5366 65.3304 74.4015C64.2666 74.1651 63.5912 73.3208 63.5743 72.2233C63.5574 71.2101 63.5743 70.197 63.5743 69.1839V68.2889H61.7676V68.3058Z" fill="#050A09"/>
<path d="M92.2122 65.8912H96.0452V68.2721H92.2459C92.1784 69.319 92.1615 70.2814 92.2459 71.2608C92.2797 71.7843 92.8707 72.0882 93.5799 71.9531C94.2722 71.8349 94.9307 71.6154 95.7243 71.4297C95.8088 72.2233 95.7412 73.0169 95.7581 73.9118C95.2009 74.0638 94.6606 74.3002 94.0865 74.3677C93.2591 74.4859 92.3979 74.5704 91.5705 74.5535C89.6962 74.5028 88.8857 73.3208 88.9532 71.9193C89.0039 71.0244 88.9532 70.1126 88.9532 69.2177V68.3058H87.1465V65.9418C87.5686 65.9081 87.957 65.9081 88.3454 65.8574C88.9701 65.773 89.1052 65.621 89.1896 64.9963C89.2741 64.3884 89.3078 63.7636 89.3585 63.0882C89.8144 63.0375 90.2703 62.97 90.7262 62.9193C91.199 62.8518 91.6549 62.7842 92.2122 62.7167V65.8912Z" fill="#050A09"/>
<path d="M26.8645 65.9419H30.3936C31.0352 67.9682 31.6938 69.9944 32.3354 72.0038C32.3861 72.0038 32.4367 72.0038 32.4874 72.0207C33.129 70.0113 33.7707 68.0019 34.4292 65.9588H37.9583C36.8439 68.8124 35.7801 71.5817 34.6994 74.3678H30.1403C29.0765 71.6323 27.9958 68.8462 26.8645 65.9419Z" fill="#050A09"/>
<path d="M72.1519 65.9587H75.2081C75.3939 66.5666 75.4277 73.4559 75.2419 74.3677H72.2532C72.0674 73.7599 71.9999 67.8499 72.1687 65.9587H72.1519Z" fill="#050A09"/>
<path d="M75.2926 64.5403H72.1519V61.9568H75.2926V64.5403Z" fill="#050A09"/>
</svg>
