<svg width="17" height="17" viewBox="0 0 17 17" fill="none" xmlns="http://www.w3.org/2000/svg">
<g id="search">
<path id="Vector" d="M7.03263 11.6369C5.74583 11.6369 4.65688 11.1911 3.7658 10.2996C2.87472 9.408 2.42894 8.31906 2.42847 7.03272C2.42847 5.74592 2.87424 4.65698 3.7658 3.76589C4.65736 2.87481 5.7463 2.42903 7.03263 2.42856C8.31944 2.42856 9.40838 2.87434 10.2995 3.76589C11.1905 4.65745 11.6363 5.74639 11.6368 7.03272C11.6368 7.55217 11.5542 8.0421 11.3889 8.50252C11.2236 8.96293 10.9993 9.37022 10.716 9.72439L14.6826 13.6911C14.8125 13.8209 14.8774 13.9862 14.8774 14.1869C14.8774 14.3876 14.8125 14.5529 14.6826 14.6827C14.5528 14.8126 14.3875 14.8775 14.1868 14.8775C13.9861 14.8775 13.8208 14.8126 13.691 14.6827L9.7243 10.7161C9.37013 10.9994 8.96284 11.2237 8.50242 11.389C8.04201 11.5543 7.55208 11.6369 7.03263 11.6369ZM7.03263 10.2202C7.91805 10.2202 8.67077 9.91021 9.2908 9.29018C9.91083 8.67016 10.2206 7.91767 10.2201 7.03272C10.2201 6.14731 9.91012 5.39459 9.29009 4.77456C8.67006 4.15453 7.91758 3.84475 7.03263 3.84522C6.14722 3.84522 5.39449 4.15524 4.77447 4.77527C4.15444 5.39529 3.84466 6.14778 3.84513 7.03272C3.84513 7.91814 4.15515 8.67086 4.77518 9.29089C5.3952 9.91092 6.14769 10.2207 7.03263 10.2202Z" fill="#050A09"/>
</g>
</svg>
