<svg width="16" height="18" viewBox="0 0 16 18" fill="none" xmlns="http://www.w3.org/2000/svg">
<path d="M15.4805 4.78913C15.4654 4.78913 13.9594 4.75898 12.6729 3.81805C11.5536 2.9992 11.1654 1.2216 11.1051 0.559115V0.46994H8.37698V12.237C8.37698 13.6511 7.2262 14.8019 5.81207 14.8019C4.39795 14.8019 3.24717 13.6511 3.24717 12.237C3.24717 10.8228 4.39795 9.67206 5.81207 9.67206H6.67207V6.94395H5.81207C2.89329 6.94395 0.519043 9.31818 0.519043 12.237C0.519043 15.1557 2.89329 17.53 5.81207 17.53C8.73085 17.53 11.1051 15.1557 11.1051 12.237V6.04966C13.0816 7.47339 15.2268 7.51727 15.4723 7.51727V4.78913H15.4805Z" fill="#29493C"/>
</svg>
